<?xml version="1.0" encoding="UTF-8"?>
<svg width="150px" height="43px" viewBox="0 0 150 43" version="1.1" xmlns="http://www.w3.org/2000/svg" xmlns:xlink="http://www.w3.org/1999/xlink">
    <!-- Generator: Sketch 41.2 (35397) - http://www.bohemiancoding.com/sketch -->
    <title>Page 1</title>
    <desc>Created with Sketch.</desc>
    <defs>
        <polygon id="path-1" points="8.91536965 0.0332684825 0.237256809 0.0332684825 0.237256809 41.9293191 8.91536965 41.9293191"></polygon>
    </defs>
    <g id="Page-1" stroke="none" stroke-width="1" fill="none" fill-rule="evenodd">
        <g>
            <path d="M25.3597471,10.7898735 L31.6562451,31.0915272 C32.0738521,29.5996984 32.3067315,27.9610798 32.3067315,26.1680837 L32.3067315,20.5206128 C32.3067315,10.2610798 24.5861089,4.09736381 15.9894163,4.09736381 C7.93990272,4.09736381 0.000116731518,9.61730545 0.000116731518,20.1170136 L0.000116731518,26.948142 C0.000116731518,37.2677918 7.66616732,42.1877335 16.2628599,42.1877335 C19.7362062,42.1877335 23.24107,41.165749 26.0849416,39.122072 L16.0790078,10.7898735 L25.3597471,10.7898735 Z" id="Fill-1" fill="#4A4A4A"></path>
            <path d="M38.4974708,10.7898735 L31.9888132,31.581216 L31.8081712,31.581216 L31.6561284,31.0915272 C30.6741245,34.5987257 28.6508755,37.2780058 26.0851167,39.122072 L27.1678016,42.1877335 L35.8459144,42.1877335 L46.7538911,10.7898735 L38.4974708,10.7898735 Z" id="Fill-3" fill="#4A4A4A"></path>
            <path d="M66.9196984,22.6620817 L66.9196984,21.6975875 C66.9196984,17.9613035 64.3282588,16.334358 61.556177,16.334358 C58.6632782,16.334358 55.7706712,18.0217121 55.7706712,22.0594553 L55.7706712,22.6620817 L66.9196984,22.6620817 Z M46.8517996,29.4114981 L46.8517996,23.445642 C46.8517996,14.2851362 53.9023833,9.58464981 61.6767023,9.58464981 C68.6070525,9.58464981 75.3567607,13.6825097 75.3567607,22.0594553 L75.3567607,28.1461284 L55.7706712,28.1461284 L55.7706712,29.5924319 C55.7706712,33.3891245 59.0852626,35.3175292 62.6409047,35.3175292 C65.2323444,35.3175292 68.5469358,33.7507004 70.1137646,31.8824125 L74.8746595,36.3418482 C71.9817607,40.3795914 67.1003405,42.1877626 61.8573444,42.1877626 C54.0833171,42.1877626 46.8517996,38.2101362 46.8517996,29.4114981 L46.8517996,29.4114981 Z" id="Fill-5" fill="#4A4A4A"></path>
            <path d="M78.1880253,10.9105739 L86.6250875,10.9105739 L86.6250875,16.0931615 L86.7459047,16.0931615 C88.4933755,12.9595039 92.7721693,10.3680642 96.5688619,10.3680642 C97.4125389,10.3680642 98.4975584,10.3680642 99.3409436,10.5489981 L99.3409436,18.2025 C98.1356907,18.021858 96.8099125,17.9614494 95.8457101,17.9614494 C91.0244066,17.9614494 86.8057296,20.432072 86.8057296,26.0369358 L86.8057296,42.1879086 L78.1880253,42.1879086 L78.1880253,10.9105739 Z" id="Fill-7" fill="#4A4A4A"></path>
            <path d="M126.701848,29.3540661 L121.178696,29.3540661 L123.955447,21.0243969 L126.701848,29.3540661 Z M128.070525,10.6930739 L120.395428,10.6930739 L108.970914,42.187821 L116.924125,42.187821 L118.978891,36.1910311 L128.89465,36.1910311 L130.907393,42.187821 L139.362549,42.187821 L128.070525,10.6930739 Z" id="Fill-9" fill="#4A4A4A"></path>
            <g id="Group-13" transform="translate(140.953307, 0.258560)">
                <mask id="mask-2" fill="white">
                    <use xlink:href="#path-1"></use>
                </mask>
                <g id="Clip-12"></g>
                <path d="M0.388715953,4.2148249 L0.388715953,4.19206226 C0.388715953,1.46638132 2.44990272,0.0332101167 4.53968872,0.0332101167 C6.77159533,0.0332101167 8.77616732,1.48184825 8.77616732,4.14536965 L8.77616732,4.01229572 C8.77616732,6.78496109 6.67208171,8.17114786 4.61089494,8.17114786 C2.37898833,8.17114786 0.388715953,6.89381323 0.388715953,4.2148249 L0.388715953,4.2148249 Z M0.237256809,41.9293191 L8.91536965,41.9293191 L8.91536965,10.6519844 L0.237256809,10.6519844 L0.237256809,41.9293191 Z" id="Fill-11" fill="#4A4A4A" mask="url(#mask-2)"></path>
            </g>
            <path d="M97.8595331,38.3255253 L97.8595331,38.3027626 C97.8595331,35.5770817 99.9207198,34.1439105 102.010506,34.1439105 C104.242412,34.1439105 106.246984,35.5925486 106.246984,38.25607 L106.246984,38.1229961 C106.246984,40.8956615 104.142899,42.2818482 102.081712,42.2818482 C99.8498054,42.2818482 97.8595331,41.0045136 97.8595331,38.3255253" id="Fill-14" fill="#4A4A4A"></path>
        </g>
    </g>
</svg>