<svg xmlns="http://www.w3.org/2000/svg" width="69" height="39" viewBox="0 0 69 39">
    <g fill="#2B2B2B" fill-rule="evenodd">
        <path d="M65.43 37.383A3.426 3.426 0 0 1 62 33.96V13.423A3.426 3.426 0 0 1 65.43 10a3.426 3.426 0 0 1 3.432 3.423V33.96a3.426 3.426 0 0 1-3.431 3.423M13.152 18.846c-3.469 0-6.29 2.815-6.29 6.275 0 3.46 2.821 6.275 6.29 6.275 3.468 0 6.29-2.815 6.29-6.275 0-3.46-2.822-6.275-6.29-6.275m0 19.396C5.9 38.242 0 32.356 0 25.12S5.9 12 13.152 12c7.252 0 13.151 5.886 13.151 13.12 0 7.236-5.9 13.122-13.151 13.122M56.84 33.095L45.748 13.932c-.026-.055-.062-.105-.091-.158l-.044-.075c-.005-.01-.013-.016-.018-.025a3.39 3.39 0 0 0-.36-.5l-.082-.088a3.328 3.328 0 0 0-.384-.355c-.054-.042-.11-.08-.166-.12-.079-.054-.148-.117-.232-.166-.05-.028-.102-.042-.152-.068-.072-.037-.147-.068-.222-.1a3.442 3.442 0 0 0-.397-.148c-.08-.023-.16-.037-.24-.054a3.45 3.45 0 0 0-.398-.067c-.097-.01-.194-.007-.292-.008-.117 0-.233-.002-.35.01-.115.01-.229.034-.344.057-.098.02-.196.038-.293.066-.12.036-.236.083-.354.132-.089.038-.177.074-.263.119-.046.024-.094.037-.14.062-.076.045-.139.103-.211.153-.067.045-.133.09-.196.14-.13.104-.249.215-.36.333-.035.037-.07.072-.103.11-.13.15-.243.31-.344.478-.008.013-.02.024-.027.038l-.066.113c-.02.04-.047.076-.067.116L28.461 33.094a3.417 3.417 0 0 0 1.255 4.675 3.43 3.43 0 0 0 4.686-1.252l7.752-13.396c.22-.38.77-.38.99 0l7.754 13.397a3.43 3.43 0 0 0 4.686 1.252 3.417 3.417 0 0 0 1.255-4.675M68.862 3.423a3.427 3.427 0 0 1-3.431 3.423A3.427 3.427 0 0 1 62 3.423 3.427 3.427 0 0 1 65.43 0a3.427 3.427 0 0 1 3.432 3.423"/>
    </g>
</svg>
