<?xml version="1.0" encoding="UTF-8"?>
<svg width="12px" height="15px" viewBox="0 0 12 15" version="1.1" xmlns="http://www.w3.org/2000/svg" xmlns:xlink="http://www.w3.org/1999/xlink">
    <!-- Generator: sketchtool 41.2 (35397) - http://www.bohemiancoding.com/sketch -->
    <title>2CC452F2-928D-4C8C-9B48-8817815852E7</title>
    <desc>Created with sketchtool.</desc>
    <defs></defs>
    <g id="Page-1" stroke="none" stroke-width="1" fill="none" fill-rule="evenodd">
        <g id="team-2" transform="translate(-1059.000000, -226.000000)" fill="#4A4A4A">
            <g id="collaborate" transform="translate(984.000000, 225.000000)">
                <g id="delete-button" transform="translate(75.000000, 1.000000)">
                    <g id="Capa_1">
                        <g id="Group">
                            <path d="M10.2863325,1.795 L7.98165729,1.795 C7.86669054,0.78621118 7.01849616,0 5.99122251,0 C4.96397954,0 4.11590793,0.786180124 4.00094118,1.795 L1.69614322,1.795 C0.763457801,1.795 0.00475703325,2.56295031 0.00475703325,3.50670807 L0.00475703325,3.59453416 C0.00475703325,4.31574534 0.448542199,4.93304348 1.07370844,5.18456522 L1.07370844,13.270559 C1.07370844,14.2143478 1.83250128,14.9822671 2.76512532,14.9822671 L9.21738107,14.9822671 C10.1500358,14.9822671 10.9087673,14.2142857 10.9087673,13.270559 L10.9087673,5.18459627 C11.5339028,4.93304348 11.9777187,4.31574534 11.9777187,3.59456522 L11.9777187,3.50673913 C11.9777187,2.56295031 11.2189565,1.795 10.2863325,1.795 Z M5.99122251,0.811770186 C6.57547826,0.811770186 7.0631509,1.23552795 7.17105882,1.795 L4.81160102,1.795 C4.91947826,1.23549689 5.40718159,0.811770186 5.99122251,0.811770186 Z M10.1065473,13.270559 C10.1065473,13.7667702 9.70757033,14.170528 9.21735038,14.170528 L2.76509463,14.170528 C2.27487468,14.170528 1.8758977,13.7667391 1.8758977,13.270559 L1.8758977,5.30624224 L10.1065473,5.30624224 L10.1065473,13.270559 Z M11.1754987,3.59453416 C11.1754987,4.09074534 10.7765217,4.49450311 10.2863018,4.49450311 L1.69614322,4.49450311 C1.20592327,4.49450311 0.806946292,4.09074534 0.806946292,3.59453416 L0.806946292,3.50670807 C0.806946292,3.01049689 1.20592327,2.60673913 1.69614322,2.60673913 L10.2863325,2.60673913 C10.7765524,2.60673913 11.1755294,3.01049689 11.1755294,3.50670807 L11.1755294,3.59453416 L11.1754987,3.59453416 Z" id="Shape"></path>
                            <path d="M3.84073657,13.1323913 C4.06226087,13.1323913 4.2418312,12.9506211 4.2418312,12.7265528 L4.2418312,8.1565528 C4.2418312,7.93245342 4.06223018,7.75065217 3.84073657,7.75065217 C3.61924297,7.75065217 3.43964194,7.93245342 3.43964194,8.1565528 L3.43964194,12.7265528 C3.43961125,12.9506832 3.61921228,13.1323913 3.84073657,13.1323913 Z" id="Shape"></path>
                            <path d="M5.99122251,13.1323913 C6.2127468,13.1323913 6.39234783,12.9506211 6.39234783,12.7265528 L6.39234783,8.1565528 C6.39234783,7.93245342 6.21268542,7.75065217 5.99122251,7.75065217 C5.7697289,7.75065217 5.59012788,7.93245342 5.59012788,8.1565528 L5.59012788,12.7265528 C5.59012788,12.9506832 5.76969821,13.1323913 5.99122251,13.1323913 Z" id="Shape"></path>
                            <path d="M8.14170844,13.1323913 C8.36320205,13.1323913 8.54277238,12.9506211 8.54277238,12.7265528 L8.54277238,8.1565528 C8.54277238,7.93245342 8.36317136,7.75065217 8.14170844,7.75065217 C7.92015345,7.75065217 7.74058312,7.93245342 7.74058312,8.1565528 L7.74058312,12.7265528 C7.74055243,12.9506832 7.92021483,13.1323913 8.14170844,13.1323913 Z" id="Shape"></path>
                        </g>
                    </g>
                </g>
            </g>
        </g>
    </g>
</svg>