<?xml version="1.0" encoding="UTF-8"?>
<svg width="15px" height="15px" viewBox="0 0 15 15" version="1.1" xmlns="http://www.w3.org/2000/svg" xmlns:xlink="http://www.w3.org/1999/xlink">
    <!-- Generator: sketchtool 41.2 (35397) - http://www.bohemiancoding.com/sketch -->
    <title>64E68067-0B05-4083-A005-99DF89D417F6</title>
    <desc>Created with sketchtool.</desc>
    <defs></defs>
    <g id="Page-1" stroke="none" stroke-width="1" fill="none" fill-rule="evenodd">
        <g id="knowledge" transform="translate(-244.000000, -526.000000)" fill="#999999">
            <path d="M258.426709,530.519079 L257.764898,531.181198 L253.793693,527.210548 L254.455504,526.548367 C255.186566,525.817211 256.372086,525.817211 257.103211,526.548367 L258.426709,527.872205 C259.156785,528.602959 259.156785,529.787985 258.426709,530.519079 Z M249.160954,538.459885 C248.978196,538.642643 248.978196,538.93863 249.160954,539.121419 C249.343804,539.305195 249.639945,539.305195 249.822703,539.121419 L257.103211,531.842917 L256.440659,531.180735 L249.160954,538.459885 Z M245.851651,535.151355 C245.668801,535.334267 245.668801,535.63013 245.851651,535.813012 C246.034409,535.9958 246.33055,535.9958 246.513401,535.813012 L253.793693,528.533954 L253.132159,527.872205 L245.851651,535.151355 Z M254.45464,529.19521 L247.174996,536.474699 C246.809449,536.839536 246.810375,537.432651 247.174996,537.798198 C247.540697,538.163775 248.132855,538.165473 248.499358,537.79721 L255.779002,530.519079 L254.45464,529.19521 Z M248.497476,539.781471 C248.273642,539.557359 248.165753,539.273347 248.125603,538.980693 C248.030459,538.995383 247.934636,539.009054 247.836745,539.009054 C247.336737,539.009054 246.867128,538.813613 246.513401,538.459885 C246.159674,538.105263 245.965003,537.636302 245.965003,537.136356 C245.965003,537.045193 245.978675,536.956345 245.991513,536.867774 C245.688984,536.826575 245.409354,536.694058 245.189995,536.474699 C245.168947,536.453806 245.161695,536.425445 245.142531,536.402546 L244,540.974058 L248.55963,539.832638 C248.539539,539.814338 248.516795,539.800635 248.497476,539.781471 Z" id="Shape"></path>
        </g>
    </g>
</svg>