<?xml version="1.0" encoding="UTF-8"?>
<svg width="52px" height="22px" viewBox="0 0 52 22" version="1.1" xmlns="http://www.w3.org/2000/svg" xmlns:xlink="http://www.w3.org/1999/xlink">
    <!-- Generator: sketchtool 41.2 (35397) - http://www.bohemiancoding.com/sketch -->
    <title>B9EC140E-F483-4B34-911E-425404825AEE</title>
    <desc>Created with sketchtool.</desc>
    <defs></defs>
    <g id="Page-1" stroke="none" stroke-width="1" fill="none" fill-rule="evenodd">
        <g id="knowledge" transform="translate(-24.000000, -34.000000)" fill="#000000">
            <g id="Header">
                <g id="Logotype" transform="translate(24.000000, 34.000000)">
                    <path d="M19.7032461,20.6711442 C19.3994338,20.1752435 19.3519823,19.6320279 19.343262,19.0840808 C19.3313626,18.3356589 19.3335208,17.5869742 19.3338125,16.8384062 C19.3340458,16.2262336 19.3400246,15.614061 19.3441077,15.0018883 C19.348045,14.4091382 19.3505532,13.816388 19.3589236,13.2236963 C19.3608776,13.0886445 19.3964298,12.9537971 19.3951466,12.8190665 C19.3933383,12.626974 19.3982381,12.4284268 19.3519823,12.2448334 C19.2964521,12.024498 19.1110499,11.9912316 18.9586333,12.1598419 C18.8681925,12.2599041 18.7952216,12.3772566 18.7232131,12.4923603 C18.1458618,13.4152047 17.5704938,14.3393049 16.9947174,15.2631131 C16.4342527,16.1623001 15.8788919,17.0646998 15.3123901,17.9600607 C14.7096652,18.9126667 14.1152524,19.8713769 13.4832459,20.8043268 C12.6675579,22.0084026 11.2146428,22.3423813 9.95783342,21.6251229 C9.11242623,21.1426281 8.66100964,20.3627506 8.66255539,19.3544766 C8.66334285,18.8332828 8.79058994,18.3525112 9.07249928,17.9166595 C9.58425835,17.1254497 10.1082667,16.3421842 10.6162052,15.5485503 C11.0924995,14.804305 11.5511199,14.0487566 12.0244686,13.3025836 C12.2689883,12.9171427 12.5286156,12.5413107 12.7813307,12.1610978 C12.8189536,12.1044952 12.8567515,12.0480094 12.8931495,11.9906474 C13.5489839,10.9568468 14.207589,9.9247985 14.8590486,8.88825239 C15.169248,8.39468822 15.4625026,7.8904928 15.7690855,7.3946213 C16.4947411,6.22103732 17.2190841,5.04660634 17.9528767,3.87810433 C18.5214201,2.97272556 19.0839847,2.06258609 19.684493,1.17858663 C20.4337722,0.075595265 21.882575,-0.200817029 22.8128525,0.196657074 C23.2057348,0.36450803 23.5566779,0.571495977 23.8486783,0.87977279 C24.3657454,1.42570459 24.5656718,2.09068294 24.56713,2.82698408 C24.5697549,4.14917179 24.567655,5.47138872 24.5709507,6.79357643 C24.5735464,7.85342949 24.577717,8.91331175 24.5877497,9.97310639 C24.5953618,10.7797373 24.6171189,11.5862221 24.6254893,12.392853 C24.6333639,13.1511468 24.6272975,13.9096158 24.6359012,14.6679096 C24.6461382,15.5714484 24.6689452,16.4748411 24.6797363,17.3783506 C24.68799,18.0682715 24.6942605,18.7583676 24.6866484,19.4482009 C24.6761198,20.3980323 23.9121706,21.4475169 23.0282364,21.7531652 C22.0343499,22.0968113 21.13245,21.9879871 20.3161787,21.3266304 C20.0860082,21.1401455 19.9061765,20.8913628 19.7032461,20.6711442 Z M33.0674869,3.83592984 C33.5790127,4.62480305 34.2176688,5.61286602 34.859679,6.59870927 C35.2948215,7.26692957 35.732443,7.93354349 36.1730102,8.59820057 C36.6241351,9.27883371 37.0838638,9.95374234 37.5329471,10.635719 C37.9070472,11.2037895 38.2656606,11.7820823 38.6413356,12.3490722 C38.9848706,12.8675205 39.3443298,13.3753667 39.6924147,13.8908359 C39.8828624,14.1728851 40.0638607,14.4613598 40.2499045,14.7464173 C40.7708214,15.5444614 41.290455,16.3433525 41.8142593,17.1394982 C42.0011489,17.4235042 42.2209075,17.687971 42.3870024,17.9831632 C42.9127607,18.9176902 42.9427132,19.8667038 42.3288765,20.7669714 C41.7385468,21.6327751 40.8950353,22.0082566 39.8421188,21.9116116 C39.4334874,21.8741101 39.0578999,21.7384742 38.7207811,21.5306684 C38.3397107,21.2957589 38.0260989,20.9703669 37.7795959,20.5894238 C37.0187382,19.4136494 36.2581721,18.2376412 35.4984227,17.0611074 C34.8390885,16.0400992 34.1812417,15.0180981 33.5223158,13.9967979 C33.13235,13.3923942 32.7422092,12.7881074 32.3501143,12.1850473 C32.3136288,12.1289412 32.2701146,12.0720465 32.2169758,12.0332016 C32.0685549,11.9246695 31.9304293,11.9718091 31.8838527,12.1499992 C31.8596457,12.2426137 31.8539877,12.3425299 31.8551543,12.4389704 C31.8670828,13.4307426 31.8822194,14.4224856 31.8961895,15.4142579 C31.9084971,16.2886483 31.919434,17.1630972 31.9329375,18.0374876 C31.9392663,18.4452425 31.9607317,18.8530266 31.9569403,19.2606354 C31.950174,19.9893136 31.7429563,20.6506703 31.1930494,21.1531133 C30.1037058,22.148478 28.7725256,22.2104838 27.6340096,21.3342825 C26.9809459,20.8317227 26.6901413,20.1151069 26.6820334,19.2891996 C26.6762004,18.6965662 26.6722631,18.1039037 26.668005,17.5112412 C26.6595471,16.3275809 26.6291571,15.1435409 26.6490769,13.9603187 C26.6714756,12.6282591 26.5896677,11.2994415 26.5775642,9.96887142 C26.5699521,9.13332589 26.5812098,8.29763433 26.5759893,7.46208879 C26.571702,6.77184664 26.5528322,6.08172131 26.5454826,5.39150837 C26.5359457,4.49825038 26.557557,3.6037073 26.5159968,2.71205568 C26.4862484,2.07444401 26.6565723,1.51265297 27.0274933,1.02198026 C27.6807612,0.157695324 28.8186938,-0.20604503 29.8676147,0.115871317 C30.5590596,0.328058057 31.0534947,0.7579224 31.4386774,1.34199817 C31.9419495,2.10511106 32.438776,2.87251734 33.0674869,3.83592984 Z M41.8930049,4.09362063 C42.6059736,5.17228281 43.316755,6.25237612 44.0324944,7.32916906 C44.6997031,8.33294524 45.3753114,9.33114293 46.0415577,10.3355909 C46.8422841,11.5427626 47.6340276,12.7558632 48.4352206,13.9627136 C49.1071832,14.9749013 49.7863788,15.9822407 50.4639703,16.9906316 C50.66448,17.2890657 50.8798347,17.5778325 51.0716532,17.8816406 C51.3398258,18.3063062 51.5270363,18.759273 51.5164202,19.2778089 C51.4997961,20.091391 51.199017,20.7640507 50.5767516,21.2967519 C49.9108261,21.8667793 49.1243031,21.9860302 48.3051153,21.8621646 C47.684279,21.768265 47.1662494,21.4248233 46.7756419,20.9232857 C46.5555042,20.6406524 46.3562486,20.3410208 46.1583637,20.0419149 C45.6541293,19.2797074 45.1584985,18.5117754 44.6547014,17.749305 C43.8828485,16.5811535 43.1090415,15.4143163 42.3322305,14.2494943 C41.7821777,13.4246676 41.2261753,12.6038715 40.6721852,11.7816734 C40.264837,11.1771238 39.8527932,10.57567 39.4497031,9.96828729 C39.1112428,9.45830894 38.784186,8.94073685 38.4494296,8.42827593 C37.9815347,7.7119814 37.491387,7.0093556 37.0467658,6.27895422 C36.4601692,5.31539568 36.5530599,4.3516327 37.1465394,3.42093171 C37.2285807,3.29227616 37.3518614,3.18792059 37.4642926,3.08108245 C38.5567861,2.04278394 40.3449826,2.15850092 41.2985046,3.26514313 C41.519634,3.52175327 41.7017405,3.81209717 41.9017836,4.08690309 C41.8988671,4.08915201 41.8959506,4.09140092 41.8930049,4.09362063 Z M4.11222488,21.5717623 C2.95784318,22.2691017 1.39133022,22.1648045 0.525769981,20.8870986 C-0.0633931176,20.0173812 -0.242233181,18.9660565 0.433987581,17.898084 C1.07366454,16.8878532 1.70634189,15.8731537 2.35053943,14.8658435 C3.08374869,13.7193341 3.82798234,12.5798928 4.56425393,11.4353403 C5.04792706,10.6834428 5.52331731,9.92620042 6.00728209,9.17450735 C6.59110798,8.26766824 7.18377089,7.36652444 7.76564272,6.45840024 C8.19043162,5.79546636 8.59710903,5.120879 9.02519357,4.46010642 C9.25720152,4.10203217 9.50805008,3.75514408 9.7661899,3.41526561 C10.3939384,2.58868654 11.586118,2.28295071 12.6410468,2.62040503 C13.3199508,2.83755691 13.8340139,3.25766621 14.1568126,3.86341335 C14.5336833,4.57071223 14.5833514,5.33414639 14.2578695,6.09004523 C14.1699952,6.29414171 14.0535975,6.48760695 13.9355374,6.6767496 C13.6167343,7.18737049 13.2914274,7.69399006 12.9660329,8.2004636 C12.4775768,8.96068503 11.9842792,9.71781055 11.4977479,10.4792587 C10.8645164,11.4702423 10.2374387,12.4651688 9.60473221,13.456503 C9.25428501,14.0056475 8.89599242,14.5497685 8.54446612,15.0982121 C8.11961889,15.7611167 7.70171294,16.4285192 7.27435752,17.0897591 C6.72071745,17.9463627 6.15894033,18.7976507 5.60419198,19.6535241 C5.33496944,20.0689311 5.07703377,20.491669 4.80789873,20.9071344 C4.61972585,21.1975951 4.37272707,21.4292043 4.11222488,21.5717623 Z" id="Fill-1-Copy-2"></path>
                </g>
            </g>
        </g>
    </g>
</svg>