<?xml version="1.0" encoding="UTF-8"?>
<svg width="814px" height="800px" viewBox="0 0 814 800" version="1.1" xmlns="http://www.w3.org/2000/svg" xmlns:xlink="http://www.w3.org/1999/xlink">
    <!-- Generator: sketchtool 42 (36781) - http://www.bohemiancoding.com/sketch -->
    <title>69B3426D-5036-47B1-B815-5B0D2CD2830B</title>
    <desc>Created with sketchtool.</desc>
    <defs></defs>
    <g id="Page-1" stroke="none" stroke-width="1" fill="none" fill-rule="evenodd">
        <g id="Login-Copy-14" transform="translate(0.000000, -2378.000000)" fill="#242A2C">
            <path d="M799.977167,3020.96659 L462.342276,2436.87799 C461.545854,2435.2131 460.453495,2433.70036 459.56568,2432.0746 L458.242663,2429.7794 C458.077286,2429.50119 457.85098,2429.28819 457.685603,2429.00999 C454.504269,2423.63279 450.870323,2418.55988 446.709782,2413.77387 C445.917712,2412.84797 445.069066,2412.00031 444.24218,2411.10484 C440.643051,2407.24039 436.795856,2403.62371 432.543922,2400.29394 C430.898854,2398.98985 429.192858,2397.84225 427.478158,2396.65118 C425.088894,2394.99064 422.991215,2393.05624 420.423517,2391.57393 C418.926418,2390.71323 417.320519,2390.27418 415.80166,2389.49173 C413.595181,2388.34848 411.314716,2387.42692 409.038604,2386.44451 C405.034736,2384.7318 401.052628,2383.11473 396.953015,2381.93236 C394.54199,2381.2325 392.091797,2380.7978 389.641604,2380.27182 C385.598567,2379.42416 381.594699,2378.61128 377.529902,2378.24613 C374.574874,2377.96793 371.619845,2378.03748 368.647408,2378.0114 C365.078743,2377.99836 361.540542,2377.94184 358.006693,2378.2896 C354.490252,2378.61997 351.021684,2379.35026 347.522651,2380.05012 C344.51975,2380.6587 341.534257,2381.20207 338.596636,2382.06711 C334.945282,2383.14081 331.402729,2384.59705 327.829712,2386.08806 C325.118397,2387.23131 322.42449,2388.33544 319.804568,2389.70473 C318.41627,2390.42633 316.945284,2390.81755 315.574394,2391.6087 C313.224297,2392.96061 311.318108,2394.74721 309.120332,2396.25126 C307.092286,2397.64229 305.077296,2399.00289 303.149346,2400.54171 C299.180294,2403.68457 295.585517,2407.07955 292.173525,2410.68318 C291.13339,2411.80035 290.075846,2412.86971 289.070527,2414.03904 C285.114531,2418.61639 281.654667,2423.46326 278.595189,2428.58833 C278.347124,2429.00129 278.003313,2429.32731 277.759599,2429.74462 L275.762017,2433.20481 C275.126621,2434.40022 274.317143,2435.5 273.729619,2436.7215 L-63.9792563,3020.93182 C-92.8419236,3070.82193 -75.7079789,3134.63102 -25.759723,3163.42966 C-9.30469507,3172.94082 8.64743141,3177.45732 26.3601962,3177.45732 C62.4689946,3177.45732 97.5594179,3158.74364 116.904194,3125.25897 L352.910465,2716.97031 C359.612592,2705.3813 376.363558,2705.3813 383.065685,2716.97031 L619.093716,3125.29374 C638.442845,3158.77841 673.528916,3177.49209 709.637714,3177.49209 C727.354831,3177.49209 745.302606,3172.9756 761.761986,3163.46444 C811.70589,3134.6658 828.844186,3070.8567 799.977167,3020.96659" id="Fill-5"></path>
        </g>
    </g>
</svg>