<?xml version="1.0" encoding="UTF-8"?>
<svg width="1920px" height="742px" viewBox="0 0 1920 742" version="1.1" xmlns="http://www.w3.org/2000/svg" xmlns:xlink="http://www.w3.org/1999/xlink">
    <!-- Generator: Sketch 42 (36781) - http://www.bohemiancoding.com/sketch -->
    <title>Group 4</title>
    <desc>Created with Sketch.</desc>
    <defs>
        <rect id="path-1" x="0" y="0" width="1920" height="903"></rect>
        <linearGradient x1="50%" y1="0%" x2="61.8932404%" y2="14.4546088%" id="linearGradient-3">
            <stop stop-color="#EAC2BD" offset="0%"></stop>
            <stop stop-color="#D2A6A7" stop-opacity="0.5" offset="100%"></stop>
        </linearGradient>
    </defs>
    <g id="SITE" stroke="none" stroke-width="1" fill="none" fill-rule="evenodd">
        <g id="over-home-copy-2" transform="translate(0.000000, -252.000000)">
            <g id="Group-4" transform="translate(0.000000, 91.000000)">
                <mask id="mask-2" fill="white">
                    <use xlink:href="#path-1"></use>
                </mask>
                <g id="Rectangle-12"></g>
                <g id="Group" mask="url(#mask-2)">
                    <g transform="translate(-2047.000000, 208.000000)">
                        <path d="M3378.11184,130.054528 C3369.14402,130.054528 3361.87805,122.798533 3361.87805,113.843034 L3361.87805,16.5740675 C3361.87805,7.61856779 3369.14402,0.362573099 3378.11184,0.362573099 C3387.07966,0.362573099 3394.34563,7.61856779 3394.34563,16.5740675 L3394.34563,113.843034 C3394.34563,122.798533 3387.07966,130.054528 3378.11184,130.054528" id="Fill-1" fill="#242A2C"></path>
                        <path d="M3337.45832,105.010015 L3284.98191,14.247937 C3284.85813,13.9892285 3284.68835,13.7541619 3284.55036,13.5015328 L3284.34473,13.1448799 C3284.31903,13.1016492 3284.28386,13.0685508 3284.25815,13.0253201 C3283.7637,12.1897527 3283.1989,11.4014688 3282.55225,10.6577665 C3282.42915,10.5138894 3282.29725,10.382171 3282.16873,10.2430224 C3281.60934,9.64252162 3281.0114,9.08052314 3280.35054,8.56310628 C3280.09486,8.3604626 3279.82971,8.18213616 3279.56321,7.99705494 C3279.19186,7.73902198 3278.86583,7.43843386 3278.46675,7.20809554 C3278.23406,7.07435072 3277.98447,7.00612734 3277.7484,6.88454114 C3277.40546,6.70689018 3277.05103,6.56368864 3276.69727,6.4110304 C3276.07497,6.1448917 3275.45606,5.89361354 3274.81888,5.70988327 C3274.44415,5.60113116 3274.06333,5.53358327 3273.68251,5.45185032 C3273.05413,5.32013193 3272.43184,5.19381737 3271.80007,5.13707714 C3271.34079,5.09384649 3270.88151,5.10465415 3270.41952,5.10060127 C3269.86487,5.09857484 3269.31495,5.08979361 3268.7657,5.14383193 C3268.21917,5.19516833 3267.68007,5.30864879 3267.13624,5.41740089 C3266.66952,5.51196794 3266.2055,5.59640281 3265.74892,5.73082312 C3265.18142,5.89766642 3264.63082,6.12395186 3264.07549,6.35564113 C3263.65409,6.53329209 3263.23539,6.70486374 3262.8282,6.9176396 C3262.61242,7.02976911 3262.38379,7.09056221 3262.17073,7.21349938 C3261.80547,7.42357332 3261.5092,7.70119516 3261.16761,7.93491088 C3260.85241,8.15106413 3260.53923,8.36248904 3260.23958,8.60160858 C3259.6227,9.08997985 3259.06398,9.6175289 3258.53368,10.1775009 C3258.37202,10.351099 3258.20765,10.5172668 3258.0514,10.6989707 C3257.43655,11.41025 3256.8988,12.163409 3256.42329,12.9597987 C3256.38473,13.0239692 3256.3313,13.0746301 3256.29342,13.139476 L3255.98295,13.6771573 C3255.88419,13.862914 3255.75838,14.0338102 3255.66706,14.2236197 L3203.17915,105.004611 C3198.69322,112.757083 3201.35623,122.672438 3209.11937,127.147486 C3211.67687,128.625434 3214.46705,129.327256 3217.22003,129.327256 C3222.83219,129.327256 3228.28607,126.419319 3231.2927,121.216105 L3267.97363,57.7717465 C3269.0153,55.9709197 3271.61879,55.9709197 3272.66046,57.7717465 L3309.34477,121.221509 C3312.35208,126.424723 3317.80529,129.33266 3323.41744,129.33266 C3326.1711,129.33266 3328.96061,128.630837 3331.51878,127.15289 C3339.28124,122.677842 3341.94494,112.762486 3337.45832,105.010015" id="Fill-5-Copy" fill="#242A2C"></path>
                        <circle id="Oval-2-Copy-4" fill="#E0E3E5" opacity="0.660495924" cx="3948.53009" cy="1175.53009" r="1043.53009"></circle>
                        <ellipse id="Oval-2-Copy" fill="#EAC2BD" opacity="0.501415308" cx="3024.5" cy="940.5" rx="1684.5" ry="871.5"></ellipse>
                        <ellipse id="Oval-2-Copy" fill="url(#linearGradient-3)" opacity="0.897531703" cx="1974.5" cy="2219.5" rx="1974.5" ry="1974.5"></ellipse>
                        <ellipse id="Oval-2-Copy" fill="#C1C1C1" opacity="0.503623188" cx="1766.5" cy="1134" rx="1607.5" ry="735"></ellipse>
                        <ellipse id="Oval-2-Copy-7" fill="#EAC2BD" cx="3994.71981" cy="941" rx="665.719808" ry="555"></ellipse>
                    </g>
                </g>
                <g id="Logo" mask="url(#mask-2)" fill="#242A2C">
                    <g transform="translate(567.000000, 161.000000)">
                        <path d="M62.4302516,84.4359238 C45.9663085,84.4359238 32.5723052,97.7765489 32.5723052,114.168854 C32.5723052,130.561159 45.9663085,143.901784 62.4302516,143.901784 C78.8941947,143.901784 92.2881981,130.561159 92.2881981,114.168854 C92.2881981,97.7765489 78.8941947,84.4359238 62.4302516,84.4359238 M62.4302516,176.337708 C28.0053966,176.337708 0,148.447544 0,114.168854 C0,79.8901642 28.0053966,52 62.4302516,52 C96.8551067,52 124.860503,79.8901642 124.860503,114.168854 C124.860503,148.447544 96.8551067,176.337708 62.4302516,176.337708" id="Fill-3"></path>
                        <path d="M135.186508,76.3323488 L187.831496,167.130636 C187.956357,167.390123 188.126683,167.624608 188.265115,167.878013 L188.471406,168.234133 C188.497193,168.277381 188.532479,168.310492 188.557587,168.354416 C189.053636,169.190317 189.620937,169.97824 190.26899,170.722239 C190.393172,170.866849 190.525497,170.99862 190.653751,171.137148 C191.215623,171.737888 191.815496,172.300111 192.4778,172.81841 C192.734307,173.020459 193.000993,173.199532 193.267678,173.384687 C193.640903,173.642147 193.967983,173.943531 194.368351,174.173286 C194.601786,174.30776 194.852185,174.375334 195.088334,174.497645 C195.433058,174.674691 195.78796,174.818625 196.143541,174.971345 C196.767844,175.236914 197.388075,175.488968 198.027985,175.672771 C198.403924,175.781567 198.78597,175.848466 199.168016,175.930232 C199.798426,176.062678 200.422728,176.189043 201.056531,176.24513 C201.517293,176.289054 201.977377,176.278242 202.441532,176.282296 C202.997976,176.284324 203.548991,176.293108 204.100684,176.238373 C204.648985,176.187692 205.189142,176.07349 205.735407,175.964695 C206.202955,175.870766 206.668468,175.786297 207.126516,175.651147 C207.695852,175.484238 208.248903,175.258538 208.805346,175.02608 C209.228786,174.849034 209.648833,174.676718 210.057344,174.464533 C210.273815,174.352359 210.503178,174.290866 210.716934,174.16788 C211.082693,173.957722 211.379916,173.680665 211.723282,173.44618 C212.039505,173.229941 212.353013,173.019107 212.654307,172.779217 C213.273181,172.290651 213.833696,171.762891 214.365032,171.202696 C214.527893,171.029704 214.692791,170.86347 214.848866,170.681694 C215.465704,169.969455 216.005183,169.215995 216.48291,168.419964 C216.520911,168.355092 216.575198,168.305086 216.613199,168.239539 L216.924672,167.701643 C217.023746,167.515812 217.149964,167.344848 217.241574,167.154963 L269.898776,76.3377548 C274.399183,68.5821903 271.727576,58.6628793 263.939402,54.1860461 C261.373654,52.7075086 258.574472,52.005406 255.812612,52.005406 C250.182353,52.005406 244.710884,54.9145029 241.694553,60.1197929 L204.894634,123.589463 C203.850285,125.391684 201.238393,125.391684 200.193365,123.589463 L163.390731,60.1143869 C160.373722,54.9090969 154.902932,52 149.272673,52 C146.510134,52 143.71163,52.7021026 141.145204,54.1806401 C133.357709,58.6574734 130.685423,68.5767843 135.186508,76.3323488" id="Fill-8"></path>
                        <path d="M570.572305,160.217962 C570.572305,169.175007 563.280859,176.435924 554.286153,176.435924 C545.291446,176.435924 538,169.175007 538,160.217962 C538,151.260917 545.291446,144 554.286153,144 C563.280859,144 570.572305,151.260917 570.572305,160.217962" id="Fill-13"></path>
                        <path d="M369.847086,148.650238 C379.71378,148.650238 387.896214,154.787385 387.896214,162.411179 C387.896214,170.222155 379.71378,176.358626 369.847086,176.358626 L313.049807,176.358626 C302.941535,176.358626 295,170.222155 295,162.411179 L295,59.9467715 C295,52.1371471 302.941535,46 313.049807,46 L369.847086,46 C379.71378,46 387.896214,52.1371471 387.896214,59.9467715 C387.896214,67.5719166 379.71378,73.7083879 369.847086,73.7083879 L330.859394,73.7083879 L330.859394,98.8131172 L369.847086,98.8131172 C378.51064,98.8131172 385.730156,104.392096 385.730156,111.08606 C385.730156,117.967206 378.51064,123.359678 369.847086,123.359678 L330.859394,123.359678 L330.859394,148.650238 L369.847086,148.650238 Z" id="Fill-15"></path>
                        <path d="M469.187181,73.8942187 L451.618494,73.8942187 L451.618494,98.9982722 L469.187181,98.9982722 C478.332535,98.9982722 485.071609,93.4199691 485.071609,86.5394987 C485.071609,79.6583527 478.332535,73.8942187 469.187181,73.8942187 L469.187181,73.8942187 Z M517.080006,157.018707 C522.132785,162.411179 519.967405,170.222155 512.98811,173.940798 C510.340932,175.428796 506.971734,176.17212 504.084335,176.17212 C499.030199,176.17212 493.735164,174.313136 490.606186,170.779647 L451.618494,126.893167 L451.618494,162.411179 C451.618494,169.849818 443.676959,176.17212 433.809586,176.17212 C423.701314,176.17212 416,169.849818 416,162.411179 L416,59.7609407 C416,52.5088087 423.701314,46.1858308 433.568687,46 L469.187181,46 C476.407376,46 482.904872,47.3014914 489.403047,49.3476576 C495.420102,51.2073173 501.436478,54.1819618 506.009494,58.0871119 C510.822052,61.4347695 514.673048,65.7122569 517.320227,70.7323919 C519.727184,75.7538783 521.411444,80.9605199 521.411444,86.5394987 C521.411444,91.9319711 519.727184,97.1386126 517.320227,102.160099 C514.673048,106.809248 510.822052,111.08606 506.009494,114.805379 C501.436478,118.524698 495.420102,121.314188 489.403047,123.359678 C488.681706,123.545509 487.959008,123.917171 487.477888,124.103677 L517.080006,157.018707 Z" id="Fill-17"></path>
                        <path d="M670.981911,61.247937 C670.858128,60.9892285 670.688349,60.7541619 670.550362,60.5015328 L670.344734,60.1448799 C669.7637,59.1897527 669.198899,58.4014688 668.552253,57.6577665 C668.429147,57.5138894 668.297247,57.382171 668.16873,57.2430224 C667.60934,56.6425216 667.011395,56.0805231 666.350545,55.5631063 C666.094863,55.3604626 665.829711,55.1821362 665.563206,54.9970549 C665.191858,54.739022 664.865829,54.4384339 664.466748,54.2080955 C664.234064,54.0743507 663.98447,54.0061273 663.748403,53.8845411 C663.405464,53.7068902 663.051026,53.5636886 662.697265,53.4110304 C662.07497,53.1448917 661.456056,52.8936135 660.81888,52.7098833 C660.44415,52.6011312 660.063332,52.5335833 659.682515,52.4518503 C659.054131,52.3201319 658.431836,52.1938174 657.800071,52.1370771 C657.34079,52.0938465 656.881509,52.1046541 656.419522,52.1006013 C655.864868,52.0985748 655.314948,52.0897936 654.765705,52.1438319 C654.219167,52.1951683 653.68007,52.3086488 653.136238,52.4174009 C652.669516,52.5119679 652.2055,52.5964028 651.748925,52.7308231 C651.181419,52.8976664 650.630822,53.1239519 650.075491,53.3556411 C649.654089,53.5332921 649.235393,53.7048637 648.828195,53.9176396 C648.612421,54.0297691 648.383795,54.0905622 648.170726,54.2134994 C647.805466,54.4235733 647.509199,54.7011952 647.167613,54.9349109 C646.852407,55.1510641 646.53923,55.362489 646.239582,55.6016086 C645.622697,56.0899798 645.063984,56.6175289 644.53368,57.1775009 C644.372019,57.351099 644.207652,57.5172668 644.051402,57.6989707 C643.436547,58.41025 642.898802,59.163409 642.423287,59.9597987 C642.384732,60.0239692 641.982946,60.6771573 641.982946,60.6771573 C641.88419,60.862914 641.758378,61.0338102 641.667063,61.2236197 L589.179154,152.004611 C584.693216,159.757083 587.356234,169.672438 595.119369,174.147486 C597.676868,175.625434 600.467051,176.327256 603.220031,176.327256 C608.832189,176.327256 614.286067,173.419319 617.2927,168.216105 L653.973631,104.771747 C655.015299,102.97092 657.618794,102.97092 658.660462,104.771747 L670.981911,61.247937 Z" id="Fill-5-Copy-2"></path>
                        <path d="M780.345634,16.2114944 C780.345634,25.1649676 773.07763,32.4229888 764.111841,32.4229888 C755.146053,32.4229888 747.878049,25.1649676 747.878049,16.2114944 C747.878049,7.25802113 755.146053,0 764.111841,0 C773.07763,0 780.345634,7.25802113 780.345634,16.2114944" id="Fill-7"></path>
                    </g>
                </g>
            </g>
        </g>
    </g>
</svg>