<?xml version="1.0" encoding="UTF-8"?>
<svg width="330px" height="182px" viewBox="0 0 330 182" version="1.1" xmlns="http://www.w3.org/2000/svg" xmlns:xlink="http://www.w3.org/1999/xlink">
    <!-- Generator: sketchtool 41.2 (35397) - http://www.bohemiancoding.com/sketch -->
    <title>B88D46DC-63CD-48D3-BF9D-5B75E64A7B94</title>
    <desc>Created with sketchtool.</desc>
    <defs></defs>
    <g id="Page-1" stroke="none" stroke-width="1" fill="none" fill-rule="evenodd">
        <g id="Login" transform="translate(-801.000000, -276.000000)" fill="#FFFFFF">
            <g id="oai-logo" transform="translate(801.000000, 276.000000)">
                <path d="M313.201492,181.776875 C304.095296,181.776875 296.717203,174.408392 296.717203,165.314057 L296.717203,66.5371521 C296.717203,57.4428174 304.095296,50.0743346 313.201492,50.0743346 C322.307688,50.0743346 329.685781,57.4428174 329.685781,66.5371521 L329.685781,165.314057 C329.685781,174.408392 322.307688,181.776875 313.201492,181.776875" id="Fill-1"></path>
                <path d="M63.1897746,88.4875755 C46.5255321,88.4875755 32.9685781,102.029615 32.9685781,118.669408 C32.9685781,135.3092 46.5255321,148.85124 63.1897746,148.85124 C79.8540172,148.85124 93.4109712,135.3092 93.4109712,118.669408 C93.4109712,102.029615 79.8540172,88.4875755 63.1897746,88.4875755 M63.1897746,181.776875 C28.3461087,181.776875 0,153.46563 0,118.669408 C0,83.8731849 28.3461087,55.5619405 63.1897746,55.5619405 C98.0334406,55.5619405 126.379549,83.8731849 126.379549,118.669408 C126.379549,153.46563 98.0334406,181.776875 63.1897746,181.776875" id="Fill-3"></path>
                <path d="M272.020303,157.082648 L218.734152,64.9135068 C218.60846,64.6507876 218.436061,64.4120768 218.295945,64.1555312 L218.087144,63.7933492 C218.061044,63.7494484 218.025328,63.7158368 217.999228,63.6719359 C217.497144,62.8234149 216.923628,62.0229104 216.267004,61.2676786 C216.141998,61.1215711 216.008063,60.9878107 215.877562,60.8465049 C215.309541,60.2366947 214.70237,59.6659837 214.031322,59.1405454 C213.771694,58.9347602 213.502451,58.7536692 213.231834,58.5657187 C212.854756,58.3036855 212.523696,57.9984375 212.118458,57.7645283 C211.882183,57.62871 211.628737,57.559429 211.389028,57.4359579 C211.040797,57.2555528 210.68089,57.1101313 210.32167,56.9551064 C209.689772,56.6848418 209.061309,56.4296681 208.414301,56.2430895 C208.033788,56.1326515 207.647094,56.0640564 207.2604,55.9810564 C206.622321,55.847296 205.990423,55.7190232 205.34891,55.6614033 C204.882542,55.6175025 204.416174,55.6284777 203.947058,55.624362 C203.383845,55.6223041 202.82544,55.6133868 202.267721,55.6682628 C201.71275,55.7203951 201.165334,55.8356348 200.613111,55.9460729 C200.139187,56.042106 199.668011,56.1278498 199.204391,56.264354 C198.628128,56.4337839 198.069035,56.6635773 197.505135,56.8988584 C197.077231,57.0792635 196.652073,57.253495 196.238593,57.4695695 C196.019489,57.5834373 195.787335,57.6451728 195.570979,57.7700159 C195.200082,57.9833465 194.899244,58.2652723 194.552387,58.5026113 C194.232317,58.7221155 193.914308,58.9368181 193.610035,59.1796446 C192.983632,59.675587 192.416298,60.2113145 191.877811,60.7799677 C191.713655,60.956257 191.546752,61.1250009 191.38809,61.3095216 C190.763748,62.0318278 190.217706,62.7966628 189.734854,63.6053987 C189.695703,63.670564 189.641443,63.7220103 189.602979,63.7878616 L189.287717,64.3338784 C189.187438,64.5225149 189.059685,64.6960604 188.966961,64.8888125 L135.669133,157.077161 C131.113974,164.949817 133.818085,175.018888 141.701009,179.563312 C144.297971,181.064172 147.131209,181.776875 149.926669,181.776875 C155.625425,181.776875 161.16346,178.823857 164.216487,173.539978 L201.463425,109.112056 C202.521167,107.283311 205.164835,107.283311 206.222577,109.112056 L243.472949,173.545466 C246.526664,178.829344 252.064011,181.782362 257.762767,181.782362 C260.558915,181.782362 263.391465,181.069659 265.989114,179.568799 C273.871352,175.024376 276.576149,164.955305 272.020303,157.082648" id="Fill-5"></path>
                <g id="Group-9" transform="translate(296.717203, 0.005488)">
                    <path d="M32.9685781,17.143212 C32.9685781,26.2354889 25.5884245,33.6060295 16.484289,33.6060295 C7.38015357,33.6060295 0,26.2354889 0,17.143212 C0,8.05093511 7.38015357,0.680394528 16.484289,0.680394528 C25.5884245,0.680394528 32.9685781,8.05093511 32.9685781,17.143212" id="Fill-7"></path>
                </g>
            </g>
        </g>
    </g>
</svg>