<svg width="290" height="100" viewBox="0 0 290 100" xmlns="http://www.w3.org/2000/svg"><title>780514D8-A3DF-483C-B4CC-3DB10CDC7976</title><g fill="#2B2B2B" fill-rule="evenodd"><path d="M86.05 1.306c-6.145-2.23-12.921.558-15.285 5.856L46.97 60.142 23.174 7.162C20.81 1.864 13.877-.925 7.731 1.306 1.743 3.536-1.251 9.532 1.112 14.83l34.669 77.518c1.891 4.044 6.303 6.553 11.031 6.553 4.885 0 9.297-2.51 11.189-6.553L92.669 14.83c2.364-5.298-.63-11.293-6.618-13.524zM250.36 98.127c-6.146 2.231-12.922-.557-15.286-5.855l-23.795-52.98-23.796 52.98c-2.364 5.298-9.297 8.086-15.443 5.855-5.988-2.23-8.982-8.225-6.619-13.524l34.67-77.518c1.89-4.043 6.302-6.553 11.03-6.553 4.885 0 9.298 2.51 11.189 6.553l34.668 77.518c2.364 5.299-.63 11.294-6.618 13.524zM124.776 24.424c20.54 0 37.21 16.74 37.21 37.364 0 20.625-16.67 37.364-37.21 37.364S87.567 82.413 87.567 61.788c0-20.625 16.67-37.364 37.21-37.364zm.354 21.076c-4.452 0-8.547 1.788-11.752 5.006-3.205 3.04-4.808 7.332-4.808 11.802s1.603 8.582 4.808 11.8c3.205 3.04 7.3 4.829 11.752 4.829 4.452 0 8.547-1.788 11.752-4.828 3.027-3.219 4.808-7.331 4.808-11.801s-1.78-8.762-4.808-11.802c-3.205-3.218-7.3-5.006-11.752-5.006zm152.916 53.726c-6.46 0-11.819-4.74-11.819-10.317V12.088c0-5.716 5.358-10.457 11.82-10.457 6.46 0 11.66 4.74 11.66 10.457v76.821c0 5.577-5.2 10.317-11.66 10.317z"/><path d="M188.226 59.341h45.962V80.22h-45.962z"/></g></svg>