<svg xmlns="http://www.w3.org/2000/svg" xmlns:xlink="http://www.w3.org/1999/xlink" width="69" height="38" viewBox="0 0 69 38">
    <defs>
        <path id="a" d="M6.862 3.564V.141H0v6.846h6.862V3.564z"/>
    </defs>
    <g fill="none" fill-rule="evenodd">
        <path fill="#D94F70" d="M65.186 37.794a3.426 3.426 0 0 1-3.43-3.423V13.834a3.426 3.426 0 0 1 3.43-3.423 3.426 3.426 0 0 1 3.431 3.423v20.537a3.426 3.426 0 0 1-3.43 3.423M13.152 18.398c-3.469 0-6.29 2.815-6.29 6.275 0 3.46 2.821 6.275 6.29 6.275 3.468 0 6.29-2.815 6.29-6.275 0-3.46-2.822-6.275-6.29-6.275m0 19.396C5.9 37.794 0 31.908 0 24.673s5.9-13.12 13.152-13.12c7.252 0 13.151 5.885 13.151 13.12 0 7.235-5.9 13.12-13.151 13.12M56.615 32.66l-11.09-19.164c-.026-.054-.062-.104-.091-.157l-.044-.075c-.005-.01-.013-.017-.018-.026a3.39 3.39 0 0 0-.36-.5l-.082-.087a3.328 3.328 0 0 0-.384-.355c-.054-.043-.11-.08-.166-.12-.079-.054-.148-.117-.232-.166-.05-.028-.102-.043-.152-.068-.072-.038-.147-.068-.222-.1a3.442 3.442 0 0 0-.397-.148c-.08-.023-.16-.038-.24-.055a3.45 3.45 0 0 0-.398-.066c-.097-.01-.194-.007-.292-.008-.117 0-.233-.002-.35.01-.115.01-.229.034-.344.057-.098.02-.196.038-.293.066-.12.035-.236.083-.354.132-.089.038-.177.074-.263.119-.046.023-.094.036-.14.062-.076.045-.139.103-.211.153-.067.045-.133.09-.196.14-.13.103-.249.215-.36.333-.035.037-.07.072-.103.11-.13.15-.243.31-.344.477-.008.014-.02.025-.027.038l-.066.114c-.02.04-.047.075-.067.115L28.237 32.66a3.417 3.417 0 0 0 1.255 4.675 3.43 3.43 0 0 0 4.686-1.252l7.752-13.396c.22-.38.77-.38.99 0l7.754 13.397a3.43 3.43 0 0 0 4.686 1.252 3.417 3.417 0 0 0 1.255-4.675"/>
        <g transform="translate(61.755 .001)">
            <mask id="b" fill="#fff">
                <use xlink:href="#a"/>
            </mask>
            <path fill="#D94F70" d="M6.862 3.564A3.427 3.427 0 0 1 3.43 6.987 3.427 3.427 0 0 1 0 3.564 3.427 3.427 0 0 1 3.43.141a3.427 3.427 0 0 1 3.432 3.423" mask="url(#b)"/>
        </g>
    </g>
</svg>
