<svg width="156" height="87" viewBox="0 0 156 87" xmlns="http://www.w3.org/2000/svg"><title>9D694F70-2E79-40B2-9217-B6050616D9DF</title><g fill="#979797" fill-rule="evenodd"><path d="M147.757 84.787c-4.285 0-7.757-3.457-7.757-7.724v-46.34c0-4.266 3.472-7.723 7.757-7.723s7.756 3.457 7.756 7.723v46.34c0 4.267-3.471 7.724-7.756 7.724M29.734 42.447c-7.841 0-14.22 6.353-14.22 14.16 0 7.806 6.379 14.159 14.22 14.159 7.841 0 14.22-6.353 14.22-14.16 0-7.806-6.379-14.16-14.22-14.16m0 43.766C13.338 86.212 0 72.93 0 56.606S13.338 27 29.734 27s29.734 13.282 29.734 29.606S46.13 86.212 29.734 86.212M128.202 74.599l-25.074-43.24c-.06-.124-.14-.235-.207-.356l-.098-.17c-.012-.02-.029-.036-.041-.057a7.648 7.648 0 0 0-.815-1.128c-.06-.068-.122-.131-.184-.197a7.518 7.518 0 0 0-.868-.8c-.122-.097-.25-.182-.377-.27-.177-.123-.333-.266-.523-.376-.112-.064-.23-.096-.344-.154-.164-.085-.333-.153-.502-.226a7.79 7.79 0 0 0-.897-.334c-.18-.052-.361-.084-.543-.123a7.814 7.814 0 0 0-.9-.15c-.22-.02-.439-.015-.66-.017-.264-.001-.527-.005-.79.02-.26.025-.518.079-.778.13-.223.046-.445.086-.663.15-.271.08-.534.187-.8.298-.201.084-.401.166-.596.268-.103.053-.212.082-.314.14-.174.1-.316.233-.48.344-.15.103-.3.204-.443.318a7.716 7.716 0 0 0-.815.75c-.077.083-.155.162-.23.249-.294.339-.55.698-.778 1.077-.018.03-.044.055-.062.086l-.148.256c-.048.088-.108.17-.151.26l-25.08 43.25c-2.143 3.693-.87 8.416 2.839 10.548a7.731 7.731 0 0 0 3.87 1.039 7.757 7.757 0 0 0 6.724-3.864l17.527-30.226a1.296 1.296 0 0 1 2.24 0l17.528 30.228a7.757 7.757 0 0 0 6.724 3.864 7.732 7.732 0 0 0 3.87-1.038c3.71-2.132 4.982-6.856 2.839-10.55M155.513 7.723c0 4.266-3.472 7.724-7.756 7.724-4.284 0-7.757-3.458-7.757-7.724C140 3.458 143.473 0 147.757 0s7.756 3.458 7.756 7.723"/></g></svg>