<?xml version="1.0" encoding="UTF-8"?>
<svg width="14px" height="15px" viewBox="0 0 14 15" version="1.1" xmlns="http://www.w3.org/2000/svg" xmlns:xlink="http://www.w3.org/1999/xlink">
    <!-- Generator: sketchtool 41.2 (35397) - http://www.bohemiancoding.com/sketch -->
    <title>59E0A215-DCA8-4B15-A405-BA8ABD62F891</title>
    <desc>Created with sketchtool.</desc>
    <defs></defs>
    <g id="Page-1" stroke="none" stroke-width="1" fill="none" fill-rule="evenodd">
        <g id="team-2" transform="translate(-984.000000, -226.000000)" fill="#4A4A4A">
            <g id="collaborate" transform="translate(984.000000, 225.000000)">
                <g id="pencil-striped-symbol-for-interface-edit-buttons">
                    <g id="Capa_1">
                        <g id="save-icon">
                            <g id="Group-5" transform="translate(2.000000, 0.000000)">
                                <path d="M4.5,1.48530682 L4.5,10 C4.5,10.2761424 4.72385763,10.5 5,10.5 C5.27614237,10.5 5.5,10.2761424 5.5,10 L5.5,1.48530682 C5.5,1.20916444 5.27614237,0.985306817 5,0.985306817 C4.72385763,0.985306817 4.5,1.20916444 4.5,1.48530682 Z" id="Line"></path>
                                <g id="Group-4" transform="translate(5.000000, 6.792893) rotate(-45.000000) translate(-5.000000, -6.792893) translate(2.000000, 3.792893)">
                                    <path d="M1.36779477e-13,0.5 L1.36779477e-13,5.5 C1.36779477e-13,5.77614237 0.223857625,6 0.5,6 C0.776142375,6 1,5.77614237 1,5.5 L1,0.5 C1,0.223857625 0.776142375,1.36779477e-13 0.5,1.36779477e-13 C0.223857625,1.36779477e-13 1.36779477e-13,0.223857625 1.36779477e-13,0.5 Z" id="Line"></path>
                                    <path d="M0.5,6 L5.5,6 C5.77614237,6 6,5.77614237 6,5.5 C6,5.22385763 5.77614237,5 5.5,5 L0.5,5 C0.223857625,5 -1.84741111e-13,5.22385763 -1.84741111e-13,5.5 C-1.84741111e-13,5.77614237 0.223857625,6 0.5,6 Z" id="Line"></path>
                                </g>
                            </g>
                            <g id="Group-6" transform="translate(7.000000, 13.000000) scale(-1, -1) translate(-7.000000, -13.000000) translate(0.000000, 10.000000)">
                                <path d="M1,5.5 L1,0.5 C1,0.223857625 0.776142375,0 0.5,0 C0.223857625,0 0,0.223857625 0,0.5 L0,5.5 C0,5.77614237 0.223857625,6 0.5,6 C0.776142375,6 1,5.77614237 1,5.5 Z" id="Line"></path>
                                <path d="M0.5,1 L13.5,1 C13.7761424,1 14,0.776142375 14,0.5 C14,0.223857625 13.7761424,0 13.5,0 L0.5,0 C0.223857625,0 0,0.223857625 0,0.5 C0,0.776142375 0.223857625,1 0.5,1 Z" id="Line"></path>
                                <path d="M14,5.5 L14,0.5 C14,0.223857625 13.7761424,0 13.5,0 C13.2238576,0 13,0.223857625 13,0.5 L13,5.5 C13,5.77614237 13.2238576,6 13.5,6 C13.7761424,6 14,5.77614237 14,5.5 Z" id="Line"></path>
                            </g>
                        </g>
                    </g>
                </g>
            </g>
        </g>
    </g>
</svg>