<svg width="678" height="800" viewBox="0 0 678 800" xmlns="http://www.w3.org/2000/svg"><title>D454147E-8AD2-44EA-AF8F-720DB57CEBE1</title><path d="M877.977 642.967L540.342 58.878c-.796-1.665-1.889-3.178-2.776-4.803l-1.323-2.296c-.166-.278-.392-.49-.557-.769a103.307 103.307 0 0 0-10.976-15.236c-.792-.926-1.64-1.774-2.468-2.67-3.599-3.864-7.446-7.48-11.698-10.81-1.645-1.304-3.351-2.452-5.066-3.643-2.39-1.66-4.487-3.595-7.054-5.077-1.498-.86-3.103-1.3-4.622-2.082-2.207-1.144-4.487-2.065-6.763-3.047-4.004-1.713-7.986-3.33-12.086-4.513-2.411-.7-4.861-1.134-7.311-1.66-4.043-.848-8.047-1.66-12.112-2.026-2.955-.278-5.91-.209-8.883-.235-3.568-.013-7.106-.07-10.64.279-3.517.33-6.985 1.06-10.484 1.76-3.003.609-5.989 1.152-8.926 2.017-3.652 1.074-7.194 2.53-10.767 4.021-2.712 1.143-5.406 2.247-8.025 3.617-1.389.721-2.86 1.113-4.23 1.904-2.35 1.352-4.257 3.138-6.455 4.642-2.028 1.391-4.043 2.752-5.97 4.29-3.97 3.144-7.564 6.539-10.976 10.142-1.04 1.117-2.098 2.187-3.103 3.356-3.956 4.577-7.416 9.424-10.476 14.55-.248.412-.592.738-.835 1.156l-1.998 3.46c-.635 1.195-1.445 2.295-2.032 3.517L14.02 642.932C-14.841 692.822 2.293 756.63 52.24 785.43c16.455 9.51 34.407 14.027 52.12 14.027 36.109 0 71.2-18.713 90.544-52.198L430.91 338.97c6.703-11.589 23.454-11.589 30.156 0l236.028 408.324c19.349 33.484 54.435 52.198 90.544 52.198 17.717 0 35.665-4.516 52.124-14.028 49.944-28.798 67.082-92.607 38.215-142.497" fill="#242A2C" fill-rule="evenodd"/></svg>