<svg width="452" height="151" viewBox="0 0 452 151" xmlns="http://www.w3.org/2000/svg"><title>44282503-1D4C-4E77-8609-73A505E0E5E1</title><g fill="#FFF" fill-rule="evenodd"><path d="M134.12 1.987c-9.579-3.394-20.14.848-23.824 8.91L73.208 91.502 36.12 10.896c-3.684-8.06-14.491-12.303-24.07-8.909-9.334 3.394-14 12.515-10.316 20.576l54.035 117.94c2.947 6.152 9.825 9.97 17.193 9.97 7.614 0 14.491-3.818 17.439-9.97l54.035-117.94c3.684-8.06-.982-17.182-10.316-20.576zm256.094 147.309c-9.579 3.394-20.14-.849-23.825-8.91L329.302 59.78l-37.088 80.607c-3.684 8.06-14.492 12.303-24.07 8.909-9.334-3.394-14-12.515-10.316-20.576l54.035-117.94c2.947-6.152 9.825-9.97 17.193-9.97 7.614 0 14.491 3.818 17.439 9.97l54.035 117.94c3.684 8.06-.982 17.182-10.316 20.576zM194.48 37.16c32.013 0 57.994 25.468 57.994 56.848s-25.981 56.847-57.994 56.847-57.995-25.468-57.995-56.847c0-31.38 25.982-56.848 57.995-56.848zm.551 32.066c-6.938 0-13.321 2.72-18.317 7.617-4.996 4.625-7.493 11.154-7.493 17.955 0 6.801 2.497 13.058 7.493 17.955 4.996 4.625 11.379 7.345 18.317 7.345 6.939 0 13.322-2.72 18.318-7.345 4.718-4.897 7.493-11.154 7.493-17.955 0-6.801-2.775-13.33-7.493-17.955-4.996-4.897-11.38-7.617-18.318-7.617zm238.339 81.742c-10.07 0-18.422-7.212-18.422-15.697V18.39c0-8.697 8.351-15.91 18.422-15.91 10.07 0 18.175 7.213 18.175 15.91v116.88c0 8.485-8.105 15.697-18.175 15.697z"/><path d="M293.374 90.284h71.638v31.767h-71.638z"/></g></svg>