<?xml version="1.0" encoding="UTF-8"?>
<svg width="131px" height="72px" viewBox="0 0 131 72" version="1.1" xmlns="http://www.w3.org/2000/svg" xmlns:xlink="http://www.w3.org/1999/xlink">
    <!-- Generator: sketchtool 41.2 (35397) - http://www.bohemiancoding.com/sketch -->
    <title>DF15B0E7-1F1F-458D-8A0F-AB7E6EA50CBD</title>
    <desc>Created with sketchtool.</desc>
    <defs>
        <polygon id="path-1" points="0.0821132621 49.8873538 55.5638631 49.8873538 55.5638631 0.0216033336 0.0821132621 0.0216033336"></polygon>
    </defs>
    <g id="Page-1" stroke="none" stroke-width="1" fill="none" fill-rule="evenodd">
        <g id="over-home" transform="translate(-241.000000, -2835.000000)">
            <g id="Foot" transform="translate(-9.348745, 2748.045907)">
                <g id="Page-1" transform="translate(251.000000, 87.000000)">
                    <path d="M123.43607,71.5775348 C119.84722,71.5775348 116.939434,68.6650894 116.939434,65.0704887 L116.939434,26.0282117 C116.939434,22.433611 119.84722,19.5211656 123.43607,19.5211656 C127.024919,19.5211656 129.932705,22.433611 129.932705,26.0282117 L129.932705,65.0704887 C129.932705,68.6650894 127.024919,71.5775348 123.43607,71.5775348" id="Fill-1" fill="#FFFFFF"></path>
                    <path d="M24.9037684,34.7042733 C18.3362116,34.7042733 12.9932705,40.056861 12.9932705,46.6338579 C12.9932705,53.2108548 18.3362116,58.5634425 24.9037684,58.5634425 C31.4713253,58.5634425 36.8142664,53.2108548 36.8142664,46.6338579 C36.8142664,40.056861 31.4713253,34.7042733 24.9037684,34.7042733 M24.9037684,71.5775348 C11.1715057,71.5775348 0,60.3873133 0,46.6338579 C0,32.8804025 11.1715057,21.690181 24.9037684,21.690181 C38.6360312,21.690181 49.8075369,32.8804025 49.8075369,46.6338579 C49.8075369,60.3873133 38.6360312,71.5775348 24.9037684,71.5775348" id="Fill-3" fill="#FFFFFF"></path>
                    <g id="Group-7" transform="translate(52.514468, 21.692323)">
                        <mask id="mask-2" fill="white">
                            <use xlink:href="#path-1"></use>
                        </mask>
                        <g id="Clip-6"></g>
                        <path d="M54.6916531,40.1246427 L33.691009,3.69413144 C33.6414722,3.59028983 33.5735282,3.49593766 33.5183068,3.39453619 L33.4360161,3.25138117 C33.4257297,3.23402905 33.4116537,3.22074383 33.4013673,3.20339171 C33.2034907,2.86773658 32.9774619,2.55160259 32.7186793,2.25309184 C32.6694131,2.19534181 32.6166279,2.14247206 32.5651963,2.08661991 C32.341333,1.84558808 32.1020403,1.62001048 31.8375731,1.41205613 C31.7352511,1.33098918 31.6291394,1.25941167 31.5224863,1.18485177 C31.3738758,1.08155241 31.2434017,0.960629801 31.0836927,0.868446647 C30.9905743,0.81449239 30.8906885,0.787379697 30.7962166,0.738576851 C30.6589752,0.66727047 30.517132,0.609520436 30.3755595,0.548516878 C30.1265218,0.44169287 29.8788376,0.340562528 29.6238446,0.267087132 C29.4738806,0.223435697 29.3214804,0.196323005 29.1690802,0.163516647 C28.9176063,0.110646897 28.6685686,0.0596750358 28.4157412,0.0371715012 C28.2319405,0.0198193781 28.0481399,0.0238862819 27.8632565,0.0222595204 C27.6412881,0.0214461396 27.4212146,0.0181926165 27.2014118,0.0398827704 C26.9826917,0.0604884165 26.7669493,0.10603774 26.549312,0.149689174 C26.3625338,0.187646943 26.1768383,0.221537809 25.9941204,0.275492067 C25.7670089,0.342460417 25.5466646,0.433287936 25.3244256,0.52628447 C25.1557838,0.597319724 24.9882247,0.66645709 24.8252674,0.75186207 C24.7389163,0.79686914 24.647422,0.821270563 24.5621537,0.870615663 C24.4159794,0.954936136 24.2974158,1.0663693 24.1607158,1.16017922 C24.0345728,1.24693983 23.9092419,1.33153143 23.7893248,1.42778149 C23.5424527,1.62380626 23.3188601,1.83555638 23.1066367,2.0603206 C23.0419411,2.13000022 22.9761626,2.19669744 22.9136325,2.26935946 C22.6675725,2.55512724 22.4523714,2.85743376 22.2620741,3.17682127 C22.2466446,3.20284946 22.2252599,3.22291285 22.2101011,3.24921216 L22.0858529,3.46502919 C22.0463317,3.53958909 21.9959828,3.60818421 21.9594392,3.68437087 L0.954193302,40.1224737 C-0.841043571,43.2341974 0.224675302,47.2140695 3.33142042,49.0102854 C4.35491116,49.6035111 5.47152034,49.8852119 6.5732414,49.8852119 C8.81918235,49.8852119 11.0017811,48.7180105 12.2050121,46.6295199 L26.8844301,21.1641947 C27.3012975,20.4410992 28.3431954,20.4410992 28.7600628,21.1641947 L43.4408343,46.6316889 C44.644336,48.7201796 46.8266641,49.887381 49.072605,49.887381 C50.1745968,49.887381 51.2909353,49.6056801 52.3146967,49.0124544 C55.4211711,47.2162385 56.4871607,43.2363664 54.6916531,40.1246427" id="Fill-5" fill="#FFFFFF" mask="url(#mask-2)"></path>
                    </g>
                    <path d="M129.932705,6.50707327 C129.932705,10.1008606 127.024107,13.0141194 123.43607,13.0141194 C119.848032,13.0141194 116.939434,10.1008606 116.939434,6.50707327 C116.939434,2.9132859 119.848032,2.71126919e-05 123.43607,2.71126919e-05 C127.024107,2.71126919e-05 129.932705,2.9132859 129.932705,6.50707327" id="Fill-8" fill="#FFFFFF"></path>
                </g>
            </g>
        </g>
    </g>
</svg>